# xmcd
#
# Track frame offsets: 
#        150
#        16382
#        39664
#        55890
#        73278
#        89536
#        110943
#        129018
#        142924
#        155750
#        170721
#        188228
#        203930
#        219652
#        236594
#        260416
#
# Disc length: 3487 seconds
#
# Revision: 2
# Processed by: cddbd v1.5.1PL0 Copyright (c) Steve Scherf et al.
# Submitted via: ExactAudioCopy v0.95a5
#
DISCID=f40d9d10
DTITLE=Various Artist - CB60328
DYEAR=2004
DGENRE=Country
TTITLE0=Shania Twain and Billy Currington - Party For Two
TTITLE1=Tim McGraw - Back When
TTITLE2=Travis Tritt ft. John Mellencamp - What Say You
TTITLE3=Reba McEntire - He Gets That From Me
TTITLE4=Jimmy Buffett and Martina McBride - Trip Around The Sun
TTITLE5=Kenny Chesney - The Woman With You
TTITLE6=Los Lonely Boys - Heaven
TTITLE7=LeAnn Rimes - Nothin' 'Bout Love Makes Sense
TTITLE8=Josh Gracin - Nothin' To Lose
TTITLE9=Brad Cotter - Can't Tell Me Nothin'
TTITLE10=Rachel Proctor - Where I Belong
TTITLE11=Dusty Drake - I Am The Working Man
TTITLE12=George Canyon - I'll Never Do Better Than You
TTITLE13=Cristy Sutherland - Freedom
TTITLE14=Willie Nelson and Toby Keith - Midnight Rider
TTITLE15=Chartbuster Karaoke - Advertisement
EXTD=Chartbuster Karaoke\nCountry Hits of November 2004
EXTT0=
EXTT1=
EXTT2=
EXTT3=
EXTT4=
EXTT5=
EXTT6=
EXTT7=
EXTT8=
EXTT9=
EXTT10=
EXTT11=
EXTT12=
EXTT13=
EXTT14=
EXTT15=
PLAYORDER=
